<?xml version="1.0" encoding="UTF-8" standalone="no"?>
<!-- Created with Inkscape (http://www.inkscape.org/) -->

<svg
   width="18.409002mm"
   height="18.409203mm"
   viewBox="0 0 18.409002 18.409202"
   version="1.1"
   id="svg1"
   inkscape:version="1.3.2 (091e20e, 2023-11-25, custom)"
   sodipodi:docname="todoctive-icon.svg"
   xmlns:inkscape="http://www.inkscape.org/namespaces/inkscape"
   xmlns:sodipodi="http://sodipodi.sourceforge.net/DTD/sodipodi-0.dtd"
   xmlns="http://www.w3.org/2000/svg"
   xmlns:svg="http://www.w3.org/2000/svg">
  <sodipodi:namedview
     id="namedview1"
     pagecolor="#ffffff"
     bordercolor="#cccccc"
     borderopacity="1"
     inkscape:showpageshadow="0"
     inkscape:pageopacity="1"
     inkscape:pagecheckerboard="0"
     inkscape:deskcolor="#d1d1d1"
     inkscape:document-units="mm"
     inkscape:zoom="3.3709876"
     inkscape:cx="46.128915"
     inkscape:cy="12.90423"
     inkscape:window-width="1280"
     inkscape:window-height="649"
     inkscape:window-x="-8"
     inkscape:window-y="-8"
     inkscape:window-maximized="1"
     inkscape:current-layer="layer1" />
  <defs
     id="defs1" />
  <g
     inkscape:label="Layer 1"
     inkscape:groupmode="layer"
     id="layer1"
     transform="translate(-88.007289,-125.13034)">
    <rect
       style="fill:#0d6efd;fill-opacity:1;stroke-width:15.4177;stroke-linecap:round;stroke-linejoin:round;stroke-opacity:0.991525;-inkscape-stroke:none;paint-order:stroke fill markers"
       id="rect2"
       width="18.409"
       height="18.409204"
       x="88.007294"
       y="125.13034"
       rx="3.8062732"
       ry="3.8062732" />
    <g
       id="g11"
       transform="matrix(0.43242005,0,0,0.43242005,78.5461,76.245817)"
       style="display:inline;fill:#ffffff">
      <path
         id="path11"
         style="display:none;fill:#ffffff;fill-opacity:1;stroke-width:10.1;stroke-linecap:round;stroke-linejoin:round;stroke-opacity:0.991525;-inkscape-stroke:none;paint-order:stroke fill markers"
         d="m 47.306205,177.49785 a 2.0968388,2.0968388 0 0 0 -2.097029,2.09703 v 14.21515 a 2.0968388,2.0968388 0 0 0 2.097029,2.09703 h 24.062098 a 5.0622202,5.0622202 0 0 0 3.579626,-1.48259 l 6.238896,-6.23942 a 2.0968367,2.0968367 0 0 0 0,-2.96519 l -6.238896,-6.23941 a 5.0622202,5.0622202 0 0 0 -3.579626,-1.4826 z m 16.36541,2.10272 c 1.158993,0 2.133629,0.21702 2.923852,0.65164 0.803394,0.43462 1.409178,1.16586 1.81746,2.19314 0.421453,1.0273 0.63252,2.42949 0.63252,4.2075 0,1.778 -0.211067,3.18771 -0.63252,4.22816 -0.408282,1.04047 -1.014066,1.7911 -1.81746,2.25206 -0.790223,0.4478 -1.764859,0.6718 -2.923852,0.6718 -1.145824,0 -2.12046,-0.224 -2.923853,-0.6718 -0.803394,-0.46096 -1.415645,-1.21159 -1.837097,-2.25206 -0.408282,-1.04045 -0.612366,-2.45016 -0.612366,-4.22816 0,-1.77801 0.204084,-3.1802 0.612366,-4.2075 0.421452,-1.02728 1.033703,-1.75852 1.837097,-2.19314 0.803393,-0.43462 1.778029,-0.65164 2.923853,-0.65164 z m -15.251266,0.21704 h 8.830986 c 0.302918,0 0.533385,0.13838 0.69143,0.41496 0.158045,0.2634 0.236679,0.55957 0.236679,0.88883 0,0.30292 -0.07863,0.59961 -0.236679,0.88935 -0.144874,0.27658 -0.375341,0.41445 -0.69143,0.41445 h -3.002918 v 10.41125 c 0,0.32926 -0.138384,0.57318 -0.414961,0.73122 -0.263408,0.15804 -0.573026,0.2372 -0.928626,0.2372 -0.32926,0 -0.66526,-0.0727 -1.00769,-0.21756 -0.32926,-0.15805 -0.49351,-0.40843 -0.49351,-0.75086 v -9.24543 c 0,-0.42145 0.105016,-0.71115 0.315743,-0.8692 0.210726,-0.15804 0.38196,-0.25711 0.513663,-0.29662 h -3.812687 c -0.316089,0 -0.553023,-0.13787 -0.711067,-0.41445 -0.144875,-0.28974 -0.217558,-0.58643 -0.217558,-0.88935 0,-0.32926 0.07915,-0.62543 0.237195,-0.88883 0.158045,-0.27658 0.388512,-0.41496 0.69143,-0.41496 z m 15.251266,2.39055 c -0.513646,0 -0.96113,0.11847 -1.343071,0.35553 -0.381941,0.2239 -0.678625,0.65845 -0.889351,1.3038 -0.197556,0.63217 -0.296106,1.56051 -0.296106,2.78536 0,1.21167 0.09855,2.14699 0.296106,2.80551 0.210726,0.65852 0.50741,1.11299 0.889351,1.36323 0.381941,0.25023 0.829425,0.37517 1.343071,0.37517 0.526815,0 0.974817,-0.12494 1.343587,-0.37517 0.381942,-0.25024 0.671642,-0.70471 0.869198,-1.36323 0.210725,-0.65852 0.316259,-1.59384 0.316259,-2.80551 0,-1.22485 -0.105534,-2.15319 -0.316259,-2.78536 -0.197556,-0.64535 -0.487256,-1.0799 -0.869198,-1.3038 -0.36877,-0.23706 -0.816772,-0.35553 -1.343587,-0.35553 z"
         transform="translate(-20.339376,-52.367505)" />
      <text
         xml:space="preserve"
         style="font-style:normal;font-variant:normal;font-weight:normal;font-stretch:normal;font-size:19.7556px;line-height:1.25;font-family:'Madimi One';-inkscape-font-specification:'Madimi One, Normal';font-variant-ligatures:normal;font-variant-caps:normal;font-variant-numeric:normal;font-variant-east-asian:normal;display:none;fill:#ffffff;stroke-width:0.264583"
         x="27.073475"
         y="141.27907"
         id="text11"><tspan
           sodipodi:role="line"
           id="tspan11"
           style="font-style:normal;font-variant:normal;font-weight:normal;font-stretch:normal;font-size:19.7556px;font-family:'Madimi One';-inkscape-font-specification:'Madimi One, Normal';font-variant-ligatures:normal;font-variant-caps:normal;font-variant-numeric:normal;font-variant-east-asian:normal;fill:#ffffff;stroke-width:0.264583"
           x="0"
           y="0">TO </tspan></text>
      <path
         d="m 32.565532,141.43711 q -0.49389,0 -1.007536,-0.21731 -0.49389,-0.23707 -0.49389,-0.75071 v -9.24562 q 0,-0.63218 0.31609,-0.86925 0.316089,-0.23707 0.513645,-0.29633 H 28.08101 q -0.474134,0 -0.711201,-0.41487 -0.217312,-0.43462 -0.217312,-0.889 0,-0.49389 0.237067,-0.889 0.237068,-0.41487 0.691446,-0.41487 h 8.830754 q 0.454378,0 0.691446,0.41487 0.237067,0.39511 0.237067,0.889 0,0.45438 -0.237067,0.889 -0.217312,0.41487 -0.691446,0.41487 h -3.002852 v 10.4112 q 0,0.49389 -0.414867,0.73096 -0.395112,0.23706 -0.928513,0.23706 z m 10.766807,0 q -1.718738,0 -2.923829,-0.67169 -1.205092,-0.69144 -1.837271,-2.25214 -0.612424,-1.56069 -0.612424,-4.22769 0,-2.66701 0.612424,-4.20795 0.632179,-1.54093 1.837271,-2.19287 1.205091,-0.65193 2.923829,-0.65193 1.738492,0 2.923828,0.65193 1.205092,0.65194 1.817516,2.19287 0.632179,1.54094 0.632179,4.20795 0,2.667 -0.632179,4.22769 -0.612424,1.5607 -1.817516,2.25214 -1.185336,0.67169 -2.923828,0.67169 z m 0,-2.60774 q 0.790224,0 1.34338,-0.37535 0.572913,-0.37536 0.869247,-1.36314 0.316089,-0.98778 0.316089,-2.80529 0,-1.83728 -0.316089,-2.78554 -0.296334,-0.96803 -0.869247,-1.30387 -0.553156,-0.3556 -1.34338,-0.3556 -0.770469,0 -1.343381,0.3556 -0.572913,0.33584 -0.889002,1.30387 -0.296334,0.94826 -0.296334,2.78554 0,1.81751 0.296334,2.80529 0.316089,0.98778 0.889002,1.36314 0.572912,0.37535 1.343381,0.37535 z"
         id="text1"
         style="font-size:19.7556px;line-height:1.25;font-family:'Madimi One';-inkscape-font-specification:'Madimi One, Normal';stroke-width:0.264583"
         aria-label="TO " />
    </g>
  </g>
</svg>
