<?xml version="1.0" encoding="UTF-8" standalone="no"?>
<!-- Created with Inkscape (http://www.inkscape.org/) -->

<svg
   width="101.2058mm"
   height="18.409212mm"
   viewBox="0 0 101.2058 18.409212"
   version="1.1"
   id="svg1"
   inkscape:version="1.3.2 (091e20e, 2023-11-25, custom)"
   sodipodi:docname="drawing.svg"
   xmlns:inkscape="http://www.inkscape.org/namespaces/inkscape"
   xmlns:sodipodi="http://sodipodi.sourceforge.net/DTD/sodipodi-0.dtd"
   xmlns="http://www.w3.org/2000/svg"
   xmlns:svg="http://www.w3.org/2000/svg">
  <sodipodi:namedview
     id="namedview1"
     pagecolor="#ffffff"
     bordercolor="#cccccc"
     borderopacity="1"
     inkscape:showpageshadow="0"
     inkscape:pageopacity="1"
     inkscape:pagecheckerboard="0"
     inkscape:deskcolor="#d1d1d1"
     inkscape:document-units="mm"
     inkscape:zoom="0.59591205"
     inkscape:cx="115.7889"
     inkscape:cy="-141.79945"
     inkscape:window-width="1280"
     inkscape:window-height="649"
     inkscape:window-x="-8"
     inkscape:window-y="-8"
     inkscape:window-maximized="1"
     inkscape:current-layer="svg1" />
  <defs
     id="defs1" />
  <g
     inkscape:label="Layer 1"
     inkscape:groupmode="layer"
     id="layer1"
     transform="translate(-13.7573,-125.13034)">
    <g
       id="g1">
      <path
         style="font-size:19.7556px;line-height:1.25;font-family:'Madimi One';-inkscape-font-specification:'Madimi One, Normal';display:inline;fill:#ffffff;fill-opacity:1;stroke-width:0.264583"
         d="m 111.46636,141.43711 q -1.97556,0 -3.10163,-0.65193 -1.10632,-0.65194 -1.58045,-1.79776 -0.45438,-1.14583 -0.45438,-2.6275 0,-2.72627 1.20509,-3.91161 1.20509,-1.20509 3.23992,-1.20509 1.22485,0 2.17312,0.41487 0.94827,0.41487 1.48167,1.18534 0.5334,0.75071 0.5334,1.83727 0,3.16089 -4.50428,3.16089 H 109.313 q 0.15804,0.61243 0.51364,0.96803 0.37536,0.33584 1.30387,0.33584 0.51365,0 0.82974,-0.0593 0.31609,-0.0593 0.59266,-0.11854 0.29634,-0.0593 0.67169,-0.0593 0.53341,0 0.8495,0.19755 0.31609,0.1778 0.31609,0.75071 0,0.80998 -0.71121,1.2051 -0.69144,0.37535 -2.21262,0.37535 z m -2.29165,-5.05743 q 0.15804,-0.21731 0.3556,-0.27658 0.19755,-0.079 0.61242,-0.079 1.16558,0 1.6002,-0.21731 0.45438,-0.23707 0.45438,-0.82974 0,-0.75071 -0.41486,-1.14582 -0.41487,-0.41487 -1.04705,-0.41487 -0.73096,0 -1.14583,0.61242 -0.41486,0.61243 -0.41486,2.35092 z"
         id="path9" />
      <path
         style="font-size:19.7556px;line-height:1.25;font-family:'Madimi One';-inkscape-font-specification:'Madimi One, Normal';display:inline;fill:#ffffff;fill-opacity:1;stroke-width:0.264583"
         d="m 100.56127,141.43711 q -0.39512,0 -0.82974,-0.15804 -0.414868,-0.1778 -0.790224,-0.61243 -0.375356,-0.45437 -0.651935,-1.30387 l -2.074338,-6.49959 q -0.138289,-0.45438 0.03951,-0.82973 0.177801,-0.39511 0.572913,-0.61243 0.395112,-0.23706 0.869246,-0.23706 0.434623,0 0.790224,0.21731 0.375357,0.21731 0.513646,0.67169 l 1.936048,6.5391 q 0.75071,-1.2446 0.98778,-2.46945 0.25682,-1.2446 0.25682,-2.39043 0,-0.3556 -0.0198,-0.69144 -0.0198,-0.3556 -0.0198,-0.67169 0,-0.57291 0.45438,-0.889 0.47414,-0.31609 1.04705,-0.31609 1.18533,0 1.36314,1.12607 0.0395,0.19755 0.0593,0.5334 0.0198,0.31609 0.0198,0.73095 0,0.67169 -0.13829,1.58045 -0.11854,0.889 -0.47414,1.9163 -0.33584,1.00753 -1.02729,2.07433 -0.61242,0.94827 -1.10631,1.44216 -0.47414,0.49389 -0.90876,0.67169 -0.43462,0.1778 -0.86924,0.1778 z"
         id="path8" />
      <path
         style="font-size:19.7556px;line-height:1.25;font-family:'Madimi One';-inkscape-font-specification:'Madimi One, Normal';display:inline;fill:#ffffff;fill-opacity:1;stroke-width:0.264583"
         d="m 94.693859,140.11349 q 0,1.32362 -1.382892,1.32362 -0.67169,0 -1.066802,-0.31609 -0.395112,-0.33584 -0.395112,-1.00753 v -7.52689 q 0,-0.63218 0.31609,-0.98778 0.335845,-0.3556 1.106313,-0.3556 0.770469,0 1.086558,0.3556 0.335845,0.3556 0.335845,0.98778 z"
         id="path7" />
      <path
         style="font-size:19.7556px;line-height:1.25;font-family:'Madimi One';-inkscape-font-specification:'Madimi One, Normal';display:inline;fill:#ffff00;fill-opacity:1;stroke-width:0.264583"
         d="m 93.271456,129.54424 q -0.730957,0 -1.224847,-0.47413 -0.49389,-0.47414 -0.49389,-1.16558 0,-0.73096 0.49389,-1.20509 0.49389,-0.47414 1.224847,-0.47414 0.750713,0 1.224847,0.47414 0.49389,0.47413 0.49389,1.20509 0,0.69144 -0.49389,1.16558 -0.474134,0.47413 -1.224847,0.47413 z"
         id="path6" />
      <path
         style="font-size:19.7556px;line-height:1.25;font-family:'Madimi One';-inkscape-font-specification:'Madimi One, Normal';display:inline;fill:#ffffff;fill-opacity:1;stroke-width:0.264583"
         d="m 87.739875,141.43711 q -1.837271,0 -2.726273,-0.86924 -0.869246,-0.86925 -0.869246,-2.66701 V 133.7917 H 83.63071 q -1.34338,0 -1.34338,-1.2051 0,-1.18533 1.34338,-1.18533 h 0.513646 v -2.13361 q 0,-0.65193 0.395112,-1.0668 0.414868,-0.41487 1.066802,-0.41487 0.63218,0 1.007536,0.39512 0.375356,0.37535 0.375356,1.04704 v 0.96803 q 0,0.73095 -0.237067,1.20509 h 1.876782 q 1.343381,0 1.343381,1.18533 0,1.2051 -1.343381,1.2051 h -1.639715 v 4.16843 q 0,0.59267 0.13829,0.84949 0.138289,0.23707 0.454378,0.23707 0.414868,0 0.612424,-0.0593 0.217312,-0.079 0.533401,-0.079 0.533401,0 0.849491,0.19755 0.31609,0.1778 0.31609,0.75071 0,0.80998 -0.513646,1.2051 -0.513646,0.37535 -1.639715,0.37535 z"
         id="path5" />
      <path
         style="font-size:19.7556px;line-height:1.25;font-family:'Madimi One';-inkscape-font-specification:'Madimi One, Normal';display:inline;fill:#ffffff;fill-opacity:1;stroke-width:0.264583"
         d="m 78.770812,141.43711 q -2.410183,0 -3.575764,-1.38289 -1.16558,-1.40265 -1.16558,-3.6943 0,-2.29165 1.16558,-3.69429 1.165581,-1.42241 3.575764,-1.42241 1.521181,0 2.212627,0.31609 0.711202,0.31609 0.711202,1.12607 0,0.57291 -0.31609,0.82974 -0.31609,0.25682 -0.849491,0.25682 -0.375356,0 -0.592668,-0.0593 -0.217311,-0.0593 -0.474134,-0.0988 -0.237067,-0.0593 -0.750713,-0.0593 -0.691446,0 -1.106314,0.41487 -0.395112,0.41486 -0.572912,1.0668 -0.158045,0.63218 -0.158045,1.32362 0,0.67169 0.118534,1.32363 0.138289,0.63218 0.533401,1.04705 0.395112,0.39511 1.205092,0.39511 0.750712,0 1.106313,-0.0988 0.355601,-0.11853 0.691446,-0.11853 0.533401,0 0.849491,0.19755 0.31609,0.1778 0.31609,0.75071 0,0.80998 -0.711202,1.2051 -0.691446,0.37535 -2.212627,0.37535 z"
         id="path4" />
      <path
         style="font-size:19.7556px;line-height:1.25;font-family:'Madimi One';-inkscape-font-specification:'Madimi One, Normal';display:inline;fill:#ffffff;fill-opacity:1;stroke-width:0.264583"
         d="m 67.845997,141.43711 c -0.869247,0 -1.63313,-0.1778 -2.29165,-0.5334 -0.65852,-0.3556 -1.172166,-0.85607 -1.540937,-1.50142 -0.355601,-0.64535 -0.533401,-1.39607 -0.533401,-2.25214 v -1.44781 c 0,-0.89559 0.474134,-1.34338 1.422403,-1.34338 0.948269,0 1.422404,0.44779 1.422404,1.34338 v 1.4083 c 0,0.61901 0.131704,1.09973 0.395112,1.44216 0.263408,0.34243 0.638764,0.51364 1.126069,0.51364 0.487305,0 0.862661,-0.17121 1.126069,-0.51364 0.263408,-0.34243 0.395112,-0.82315 0.395112,-1.44216 v -1.4083 c 0,-0.89559 0.474134,-1.34338 1.422403,-1.34338 0.948269,0 1.422403,0.44779 1.422403,1.34338 v 1.44781 c 0,0.85607 -0.184385,1.60679 -0.553156,2.25214 -0.355601,0.64535 -0.862662,1.14582 -1.521182,1.50142 -0.645349,0.3556 -1.409232,0.5334 -2.291649,0.5334 z"
         id="path3"
         sodipodi:nodetypes="sscsssssssssssssccs" />
      <path
         style="font-size:19.7556px;line-height:1.25;font-family:'Madimi One';-inkscape-font-specification:'Madimi One, Normal';display:inline;fill:#ffffff;fill-opacity:1;stroke-width:0.264583"
         d="m 56.861892,141.43711 q -2.173116,0 -3.437474,-1.38289 -1.244603,-1.38289 -1.244603,-4.0499 0,-1.778 0.513646,-2.82505 0.513645,-1.04704 1.422403,-1.48167 0.928513,-0.45438 2.094093,-0.45438 1.047047,0 1.698982,0.25683 0.651935,0.25682 1.027291,0.86924 -0.138289,-0.41487 -0.217311,-0.77047 -0.05927,-0.37535 -0.09878,-0.86924 -0.01976,-0.49389 -0.01976,-1.26436 v -1.69898 q 0,-1.54094 1.323625,-1.54094 1.442159,0 1.442159,1.54094 v 8.35662 q 0,2.667 -1.185336,3.99063 -1.185336,1.32362 -3.318941,1.32362 z m -0.138289,-2.37067 q 0.829735,0 1.284114,-0.59267 0.474134,-0.59267 0.474134,-2.21262 0,-1.08656 -0.217311,-1.63972 -0.197556,-0.57291 -0.592668,-0.79022 -0.395112,-0.21731 -0.948269,-0.21731 -0.553157,0 -0.948269,0.21731 -0.395112,0.21731 -0.612423,0.79022 -0.197556,0.55316 -0.197556,1.63972 0,1.61995 0.454378,2.21262 0.474135,0.59267 1.30387,0.59267 z"
         id="text1" />
      <path
         style="font-size:19.7556px;line-height:1.25;font-family:'Madimi One';-inkscape-font-specification:'Madimi One, Normal';display:inline;opacity:1;fill:#ffffff;fill-opacity:0.5;stroke:none;stroke-width:0.5;stroke-linecap:butt;stroke-linejoin:miter;stroke-dasharray:12, 0.5;stroke-dashoffset:0;stroke-opacity:1;paint-order:normal"
         d="m 67.845997,131.18396 c -0.869247,0 -1.63313,0.1778 -2.29165,0.5334 -0.65852,0.3556 -1.172166,0.85607 -1.540937,1.50142 -0.355601,0.64535 -0.533401,1.39607 -0.533401,2.25214 v 1.97698 c 0,0.89558 0.474134,1.34338 1.422403,1.34338 0.948269,0 1.422404,-0.4478 1.422404,-1.34338 v -1.93747 c 0,-0.61901 0.131704,-1.09973 0.395112,-1.44216 0.263408,-0.34243 0.638764,-0.51364 1.126069,-0.51364 0.487305,0 0.862661,0.17121 1.126069,0.51364 0.263408,0.34243 0.395112,0.82315 0.395112,1.44216 v 1.93747 c 0,0.89558 0.474134,1.34338 1.422403,1.34338 0.948269,0 1.422403,-0.4478 1.422403,-1.34338 v -1.97698 c 0,-0.85607 -0.184385,-1.60679 -0.553156,-2.25214 -0.355601,-0.64535 -0.862662,-1.14582 -1.521182,-1.50142 -0.645349,-0.3556 -1.409232,-0.5334 -2.291649,-0.5334 z"
         id="path10"
         sodipodi:nodetypes="sscsssssssssssssccs" />
    </g>
    <g
       id="g11"
       transform="translate(-11.1125)">
      <path
         id="path11"
         style="fill:#ffffff;fill-opacity:1;stroke-width:10.1;stroke-linecap:round;stroke-linejoin:round;stroke-opacity:0.991525;-inkscape-stroke:none;paint-order:stroke fill markers"
         d="m 47.306205,177.49785 a 2.0968388,2.0968388 0 0 0 -2.097029,2.09703 v 14.21515 a 2.0968388,2.0968388 0 0 0 2.097029,2.09703 h 24.062098 a 5.0622202,5.0622202 0 0 0 3.579626,-1.48259 l 6.238896,-6.23942 a 2.0968367,2.0968367 0 0 0 0,-2.96519 l -6.238896,-6.23941 a 5.0622202,5.0622202 0 0 0 -3.579626,-1.4826 z m 16.36541,2.10272 c 1.158993,0 2.133629,0.21702 2.923852,0.65164 0.803394,0.43462 1.409178,1.16586 1.81746,2.19314 0.421453,1.0273 0.63252,2.42949 0.63252,4.2075 0,1.778 -0.211067,3.18771 -0.63252,4.22816 -0.408282,1.04047 -1.014066,1.7911 -1.81746,2.25206 -0.790223,0.4478 -1.764859,0.6718 -2.923852,0.6718 -1.145824,0 -2.12046,-0.224 -2.923853,-0.6718 -0.803394,-0.46096 -1.415645,-1.21159 -1.837097,-2.25206 -0.408282,-1.04045 -0.612366,-2.45016 -0.612366,-4.22816 0,-1.77801 0.204084,-3.1802 0.612366,-4.2075 0.421452,-1.02728 1.033703,-1.75852 1.837097,-2.19314 0.803393,-0.43462 1.778029,-0.65164 2.923853,-0.65164 z m -15.251266,0.21704 h 8.830986 c 0.302918,0 0.533385,0.13838 0.69143,0.41496 0.158045,0.2634 0.236679,0.55957 0.236679,0.88883 0,0.30292 -0.07863,0.59961 -0.236679,0.88935 -0.144874,0.27658 -0.375341,0.41445 -0.69143,0.41445 h -3.002918 v 10.41125 c 0,0.32926 -0.138384,0.57318 -0.414961,0.73122 -0.263408,0.15804 -0.573026,0.2372 -0.928626,0.2372 -0.32926,0 -0.66526,-0.0727 -1.00769,-0.21756 -0.32926,-0.15805 -0.49351,-0.40843 -0.49351,-0.75086 v -9.24543 c 0,-0.42145 0.105016,-0.71115 0.315743,-0.8692 0.210726,-0.15804 0.38196,-0.25711 0.513663,-0.29662 h -3.812687 c -0.316089,0 -0.553023,-0.13787 -0.711067,-0.41445 -0.144875,-0.28974 -0.217558,-0.58643 -0.217558,-0.88935 0,-0.32926 0.07915,-0.62543 0.237195,-0.88883 0.158045,-0.27658 0.388512,-0.41496 0.69143,-0.41496 z m 15.251266,2.39055 c -0.513646,0 -0.96113,0.11847 -1.343071,0.35553 -0.381941,0.2239 -0.678625,0.65845 -0.889351,1.3038 -0.197556,0.63217 -0.296106,1.56051 -0.296106,2.78536 0,1.21167 0.09855,2.14699 0.296106,2.80551 0.210726,0.65852 0.50741,1.11299 0.889351,1.36323 0.381941,0.25023 0.829425,0.37517 1.343071,0.37517 0.526815,0 0.974817,-0.12494 1.343587,-0.37517 0.381942,-0.25024 0.671642,-0.70471 0.869198,-1.36323 0.210725,-0.65852 0.316259,-1.59384 0.316259,-2.80551 0,-1.22485 -0.105534,-2.15319 -0.316259,-2.78536 -0.197556,-0.64535 -0.487256,-1.0799 -0.869198,-1.3038 -0.36877,-0.23706 -0.816772,-0.35553 -1.343587,-0.35553 z"
         transform="translate(-20.339376,-52.367505)" />
      <text
         xml:space="preserve"
         style="font-style:normal;font-variant:normal;font-weight:normal;font-stretch:normal;font-size:19.7556px;line-height:1.25;font-family:'Madimi One';-inkscape-font-specification:'Madimi One, Normal';font-variant-ligatures:normal;font-variant-caps:normal;font-variant-numeric:normal;font-variant-east-asian:normal;display:none;fill:#d40000;stroke-width:0.264583"
         x="27.073475"
         y="141.27907"
         id="text11"><tspan
           sodipodi:role="line"
           id="tspan11"
           style="font-style:normal;font-variant:normal;font-weight:normal;font-stretch:normal;font-size:19.7556px;font-family:'Madimi One';-inkscape-font-specification:'Madimi One, Normal';font-variant-ligatures:normal;font-variant-caps:normal;font-variant-numeric:normal;font-variant-east-asian:normal;fill:#d40000;stroke-width:0.264583"
           x="0"
           y="0">TO </tspan></text>
    </g>
  </g>
</svg>
